<svg xml:space="preserve" height="182.9" viewBox="0 0 182.85762 182.85762" width="182.9" version="1.1" ><g transform="matrix(1.25 0 0 -1.25 -29.37 234)"><path d="m169.8 119l-26.9 20.62-6.444-4.94-12.89 9.879 6.445 4.94-26.9 20.62-6.443-4.939-6.45 4.939-26.9-20.62 6.445-4.94-12.89-9.879-6.45 4.94-26.9-20.62 6.445-4.939-6.445-4.94 26.9-20.62 6.45 4.94 12.89-9.886-6.445-4.939 26.9-20.62 6.45 4.939 6.443-4.939 26.9 20.62-6.445 4.946 12.89 9.879 6.444-4.94 26.9 20.62-6.444 4.94 6.444 4.939zm-73.14-14.82l-12.89 9.881 12.89 9.879 12.89-9.879-12.89-9.881" fill-rule="evenodd" fill="#231f20"/></g></svg>
