<?xml version="1.0" encoding="UTF-8" standalone="no"?>
<!-- Created with Inkscape (http://www.inkscape.org/) -->

<svg
   xmlns:dc="http://purl.org/dc/elements/1.1/"
   xmlns:cc="http://creativecommons.org/ns#"
   xmlns:rdf="http://www.w3.org/1999/02/22-rdf-syntax-ns#"
   xmlns:svg="http://www.w3.org/2000/svg"
   xmlns="http://www.w3.org/2000/svg"
   xmlns:sodipodi="http://sodipodi.sourceforge.net/DTD/sodipodi-0.dtd"
   xmlns:inkscape="http://www.inkscape.org/namespaces/inkscape"
   id="svg2"
   version="1.1"
   inkscape:version="0.91 r13725"
   xml:space="preserve"
   width="182.85762"
   height="182.85762"
   viewBox="0 0 182.85762 182.85762"
   sodipodi:docname="Sumitomo.svg"><metadata
     id="metadata8"><rdf:RDF><cc:Work
         rdf:about=""><dc:format>image/svg+xml</dc:format><dc:type
           rdf:resource="http://purl.org/dc/dcmitype/StillImage" /><dc:title></dc:title></cc:Work></rdf:RDF></metadata><defs
     id="defs6" /><sodipodi:namedview
     pagecolor="#ffffff"
     bordercolor="#666666"
     borderopacity="1"
     objecttolerance="10"
     gridtolerance="10"
     guidetolerance="10"
     inkscape:pageopacity="0"
     inkscape:pageshadow="2"
     inkscape:window-width="1280"
     inkscape:window-height="749"
     id="namedview4"
     showgrid="false"
     fit-margin-top="0"
     fit-margin-left="0"
     fit-margin-right="0"
     fit-margin-bottom="0"
     inkscape:zoom="0.97319588"
     inkscape:cx="62.837458"
     inkscape:cy="19.749486"
     inkscape:window-x="0"
     inkscape:window-y="0"
     inkscape:window-maximized="1"
     inkscape:current-layer="g10" /><g
     id="g10"
     inkscape:groupmode="layer"
     inkscape:label="ink_ext_XXXXXX"
     transform="matrix(1.25,0,0,-1.25,-29.368625,233.96212)"><path
       inkscape:connector-curvature="0"
       id="path16"
       style="fill:#231f20;fill-opacity:1;fill-rule:evenodd;stroke:none"
       d="m 169.781,118.96685 l -26.902,20.624 l -6.444,-4.94 l -12.893,9.879 l 6.445,4.94 l -26.903,20.618 l -6.442602,-4.939 l -6.4496,4.939 l -26.9027,-20.618 l 6.4449,-4.94 l -12.8879,-9.879 l -6.4496,4.94 l -26.9016,-20.624 l 6.4449,-4.9389 l -6.4449,-4.9398 l 26.9016,-20.618802 l 6.4496,4.9398 l 12.8879,-9.8859 l -6.4449,-4.9391 l 26.9027,-20.6187 l 6.4496,4.9394 l 6.442602,-4.9394 l 26.903,20.6187 l -6.445,4.9457 l 12.893,9.8793 l 6.444,-4.9398 l 26.902,20.618802 l -6.444,4.9398 l 6.444,4.9389 z m -73.139602,-14.8202 l -12.8937,9.8813 l 12.8937,9.8789 l 12.886602,-9.8789 l -12.886602,-9.8813" /></g></svg>